<?xml version="1.0" encoding="UTF-8"?>
<svg xmlns="http://www.w3.org/2000/svg" viewBox="0 0 404.54 432.37">
  <defs>
    <style>
      .cls-1 {
        fill: #a31919;
      }

      .cls-2 {
        opacity: .18;
      }

      .cls-2, .cls-3, .cls-4, .cls-5, .cls-6, .cls-7, .cls-8, .cls-9 {
        mix-blend-mode: multiply;
      }

      .cls-2, .cls-9 {
        fill: #2a1214;
      }

      .cls-10 {
        fill: #7d95bd;
      }

      .cls-11 {
        fill: #d3e8f8;
      }

      .cls-12 {
        fill: #d57c6e;
      }

      .cls-13 {
        fill: #242417;
      }

      .cls-14, .cls-15 {
        fill: #fff;
      }

      .cls-16 {
        opacity: .6;
      }

      .cls-16, .cls-17 {
        fill: #a7d1f1;
      }

      .cls-3 {
        opacity: .28;
      }

      .cls-3, .cls-7 {
        fill: #4c2a29;
      }

      .cls-18 {
        stroke: #562924;
        stroke-width: .87px;
      }

      .cls-18, .cls-19, .cls-20, .cls-6, .cls-21, .cls-22, .cls-23, .cls-24, .cls-25, .cls-26 {
        fill: none;
      }

      .cls-18, .cls-19, .cls-20, .cls-6, .cls-21, .cls-22, .cls-24, .cls-25, .cls-26 {
        stroke-miterlimit: 10;
      }

      .cls-27 {
        fill: #a5a5a5;
      }

      .cls-28 {
        fill: #9b4c42;
      }

      .cls-29 {
        fill: #721c1f;
      }

      .cls-30 {
        fill: #562924;
      }

      .cls-19 {
        stroke: #7b3c38;
        stroke-width: .86px;
      }

      .cls-31 {
        fill: #8c4242;
      }

      .cls-32 {
        isolation: isolate;
      }

      .cls-4 {
        fill: #515159;
      }

      .cls-20 {
        stroke-width: 1.01px;
      }

      .cls-20, .cls-25 {
        stroke: #fff;
      }

      .cls-5, .cls-33 {
        fill: #4c6ea1;
      }

      .cls-15 {
        mix-blend-mode: overlay;
        opacity: .39;
      }

      .cls-34, .cls-35 {
        fill: #526175;
      }

      .cls-6, .cls-21 {
        stroke-linecap: round;
        stroke-width: 4.06px;
      }

      .cls-6, .cls-22 {
        stroke: #2a1214;
      }

      .cls-6, .cls-9 {
        opacity: .61;
      }

      .cls-7 {
        opacity: .11;
      }

      .cls-36 {
        fill: #70b5e8;
      }

      .cls-37 {
        fill: #ac3e2c;
      }

      .cls-38 {
        fill: #2f2f35;
      }

      .cls-39 {
        fill: #d5ebfe;
      }

      .cls-21 {
        stroke: #c53326;
      }

      .cls-40 {
        fill: #9cbdeb;
      }

      .cls-41 {
        fill: #e9f4fb;
        opacity: .66;
      }

      .cls-42 {
        fill: #bbdbfe;
      }

      .cls-43, .cls-8, .cls-44 {
        fill: #609ace;
      }

      .cls-45 {
        fill: #843836;
      }

      .cls-46 {
        fill: #2b2c1e;
      }

      .cls-47 {
        fill: #272726;
      }

      .cls-22 {
        opacity: .97;
        stroke-width: .88px;
      }

      .cls-24 {
        stroke: #2f2f35;
        stroke-width: 1px;
      }

      .cls-48 {
        fill: #e3f3ff;
      }

      .cls-25 {
        stroke-width: .91px;
      }

      .cls-49 {
        fill: #a03326;
      }

      .cls-26 {
        stroke: #721c1f;
        stroke-width: .94px;
      }

      .cls-44 {
        opacity: .57;
      }

      .cls-50 {
        fill: #fff6e7;
      }

      .cls-51 {
        fill: #c53326;
      }

      .cls-52 {
        fill: #7bbbea;
      }

      .cls-53 {
        fill: #cecece;
      }

      .cls-54 {
        fill: #ff7e6e;
      }

      .cls-55 {
        fill: #be5f4e;
      }

      .cls-56 {
        fill: #ececec;
      }

      .cls-35 {
        opacity: .35;
      }
    </style>
  </defs>
  <g class="cls-32">
    <g id="OBJECTS">
      <g>
        <path class="cls-41" d="m150.81,287.77c-4.02-.02-8.03-.18-12.06-.51-44.1-3.62-95.18-24.67-117.14-63.01C2.41,190.73-5.13,147.34,3.62,109.96c8.22-35.14,33.69-63.6,69.36-74.41,40.11-12.15,84.45,2.61,123.92-13.99,57.45-24.16,129.66-4.97,169.92,41,35.7,40.76,44.34,106.47,33.13,157.39-5.66,25.73-20.56,50.52-44.28,63.48-18.87,10.31-41.68,12.34-63.25,9.65-17.35-2.16-33.32-7.82-50.01-12.47-13.38-3.73-24.35-1.79-38.04.92-17.62,3.49-35.54,6.32-53.56,6.24Z"/>
        <g>
          <path class="cls-35" d="m376.94,335.52c0,1.8-78.75,3.27-175.9,3.27s-175.9-1.46-175.9-3.27,78.75-3.27,175.9-3.27,175.9,1.46,175.9,3.27Z"/>
          <g>
            <g>
              <polygon class="cls-34" points="353.43 314.27 353.43 335.09 350.41 335.09 341.94 314.27 353.43 314.27"/>
              <polygon class="cls-46" points="343.64 318.47 353.43 318.47 353.43 314.27 341.94 314.27 343.64 318.47"/>
            </g>
            <g>
              <polygon class="cls-34" points="44.12 314.27 44.12 335.09 47.15 335.09 55.62 314.27 44.12 314.27"/>
              <polygon class="cls-46" points="53.91 318.47 44.12 318.47 44.12 314.27 55.62 314.27 53.91 318.47"/>
            </g>
            <rect class="cls-39" x="25.14" y="238.86" width="347.28" height="75.41"/>
            <rect class="cls-25" x="33.1" y="245.86" width="161.98" height="61.71"/>
            <rect class="cls-25" x="202.79" y="245.86" width="161.98" height="61.71"/>
            <line class="cls-25" x1="33.1" y1="276.56" x2="195.08" y2="276.56"/>
            <line class="cls-25" x1="202.79" y1="276.71" x2="364.77" y2="276.71"/>
            <path class="cls-14" d="m117.95,276.94c0,2.38-1.93,4.31-4.31,4.31s-4.31-1.93-4.31-4.31,1.93-4.31,4.31-4.31,4.31,1.93,4.31,4.31Z"/>
            <path class="cls-14" d="m292.41,276.94c0,2.38-1.93,4.31-4.31,4.31s-4.31-1.93-4.31-4.31,1.93-4.31,4.31-4.31,4.31,1.93,4.31,4.31Z"/>
          </g>
        </g>
        <g>
          <g>
            <rect class="cls-42" x="59.67" width="108.84" height="188.09"/>
            <g>
              <rect class="cls-48" x="64.87" y="6.12" width="44.92" height="85.32"/>
              <rect class="cls-48" x="117.52" y="6.12" width="44.92" height="85.32"/>
              <rect class="cls-48" x="64.87" y="97.32" width="44.92" height="85.32"/>
              <rect class="cls-48" x="117.52" y="97.32" width="44.92" height="85.32"/>
            </g>
            <g>
              <rect class="cls-20" x="64.87" y="6.12" width="44.92" height="85.32"/>
              <rect class="cls-20" x="117.52" y="6.12" width="44.92" height="85.32"/>
              <rect class="cls-20" x="64.87" y="97.32" width="44.92" height="85.32"/>
              <rect class="cls-20" x="117.52" y="97.32" width="44.92" height="85.32"/>
            </g>
          </g>
          <g>
            <path class="cls-14" d="m80.04,38.14c0,1.85-1.5,3.35-3.35,3.35s-3.35-1.5-3.35-3.35,1.5-3.35,3.35-3.35,3.35,1.5,3.35,3.35Z"/>
            <path class="cls-14" d="m88.52,36.57c0,2.72-2.2,4.92-4.92,4.92s-4.92-2.2-4.92-4.92,2.2-4.92,4.92-4.92,4.92,2.2,4.92,4.92Z"/>
            <circle class="cls-14" cx="89.48" cy="37.7" r="3.79"/>
            <path class="cls-14" d="m96.89,38.91c0,1.43-1.16,2.58-2.58,2.58s-2.58-1.16-2.58-2.58,1.16-2.58,2.58-2.58,2.58,1.16,2.58,2.58Z"/>
            <polygon class="cls-14" points="76.7 38.14 66.47 41.49 105.12 41.49 94.31 38.91 76.7 38.14"/>
          </g>
          <path class="cls-14" d="m162.44,149.08v-13.99c-1.62-2.51-4.39-4.21-7.6-4.21-4.38,0-8.03,3.1-8.9,7.22-1.06-.86-2.39-1.39-3.86-1.39-3.42,0-6.19,2.77-6.19,6.19,0,.67.13,1.31.33,1.91l-13.06,4.27h39.28Z"/>
        </g>
        <g>
          <rect class="cls-34" x="308.69" y="94.21" width="40.57" height="7.46" transform="translate(159.2 396.26) rotate(-76.94)"/>
          <rect class="cls-39" x="327.25" y="88.37" width="6.15" height="7.46" transform="translate(165.94 393.06) rotate(-76.94)"/>
          <rect class="cls-17" x="252.24" y="95.85" width="6.56" height="29.91"/>
          <rect class="cls-17" x="365.44" y="95.85" width="6.56" height="29.91"/>
          <rect class="cls-17" x="252.24" y="118.22" width="120.13" height="7.53"/>
          <rect class="cls-51" x="352.58" y="77.66" width="7.46" height="40.57"/>
          <rect class="cls-14" x="352.58" y="88.87" width="7.46" height="6.14"/>
          <rect class="cls-10" x="337.66" y="77.66" width="7.46" height="40.57"/>
          <rect class="cls-40" x="337.66" y="88.87" width="7.46" height="6.14"/>
          <g>
            <rect class="cls-10" x="272.36" y="110.99" width="40.57" height="7.46"/>
            <rect class="cls-40" x="295.57" y="110.99" width="6.14" height="7.46"/>
          </g>
          <g>
            <rect class="cls-42" x="276.88" y="96.07" width="40.57" height="7.46"/>
            <rect class="cls-40" x="300.09" y="96.07" width="6.14" height="7.46"/>
          </g>
          <g>
            <rect class="cls-51" x="270.17" y="103.53" width="40.57" height="7.46"/>
            <rect class="cls-34" x="293.38" y="103.53" width="6.15" height="7.46"/>
          </g>
          <rect class="cls-34" x="345.12" y="77.66" width="7.46" height="40.57"/>
          <rect class="cls-39" x="345.12" y="88.87" width="7.46" height="6.14"/>
        </g>
        <ellipse class="cls-16" cx="205.43" cy="374.26" rx="102.53" ry="13.85"/>
        <g>
          <ellipse class="cls-16" cx="361.93" cy="373.93" rx="39.12" ry="4"/>
          <g>
            <g>
              <rect class="cls-51" x="339.67" y="197.17" width="23.31" height="26.83"/>
              <rect class="cls-9" x="339.67" y="197.17" width="8.69" height="26.83"/>
              <path class="cls-21" d="m344.01,205.02h-3.57c-3.66,0-6.63,2.97-6.63,6.63v.13c0,3.66,2.97,6.63,6.63,6.63h3.57"/>
              <path class="cls-6" d="m344.01,205.02h-3.57c-3.66,0-6.63,2.97-6.63,6.63v.13c0,3.66,2.97,6.63,6.63,6.63h3.57"/>
            </g>
            <path class="cls-44" d="m350.75,193.23s-5.55-6.9-.98-15.61c4.57-8.71,1.42-14.7,0-18.64,6.97,10.27,6.8,14.21,4.4,20.04-2.4,5.82-3.77,8.77-3.42,14.21Z"/>
          </g>
          <g>
            <rect class="cls-52" x="320.42" y="224" width="78.73" height="7.28"/>
            <g>
              <polygon class="cls-52" points="349.84 231.27 335.85 374.26 331.3 374.26 341.56 231.27 349.84 231.27"/>
              <polygon class="cls-33" points="341.56 231.27 341.26 235.47 349.43 235.47 349.84 231.27 341.56 231.27"/>
            </g>
            <g>
              <polygon class="cls-52" points="369.73 231.27 383.72 374.26 388.27 374.26 378.01 231.27 369.73 231.27"/>
              <polygon class="cls-33" points="378.01 231.27 378.31 235.47 370.14 235.47 369.73 231.27 378.01 231.27"/>
            </g>
          </g>
        </g>
        <g>
          <path class="cls-33" d="m73.34,211.84s9.23-12.27,6.37-29.57c-7.32,4.01-20.27,20.93-16.84,36.34l10.47-6.77Z"/>
          <path class="cls-4" d="m74.56,186.37c-1.83,17.74-11.88,30.72-11.88,30.72-.03-.04-.07-.09-.1-.13-1.73-11.69,5.41-23.95,11.99-30.59Z"/>
          <g>
            <path class="cls-52" d="m51.79,215.28s-11.82-9.01-17.07-26.61c-5.25-17.6-.38-26.34-2.63-40.91,12,20.31,25.95,53.94,25.91,70.32-1.91,1-6.22-2.79-6.22-2.79Z"/>
            <path class="cls-33" d="m56.02,217.08c-3.45-3.91-7.38-19.4-9.26-39.71,5.69,13.6,10.12,27.4,11.06,37.09-1.08,1.69-1.8,2.62-1.8,2.62Z"/>
          </g>
          <path class="cls-17" d="m59.11,217.08s14.63-18.84,11.81-42.19c-2.81-23.34-19.94-41.47-19.13-60.41-7.69,45.07.7,95.09,7.31,102.6Z"/>
          <path class="cls-43" d="m60,213.78s-8.14-47.12-6.15-63.66c1.88,19.06,8.63,62.07,8.63,62.07l-2.49,1.59Z"/>
          <path class="cls-8" d="m73.34,211.84l-10.47,6.77c-.12-.55-.22-1.1-.3-1.65h0c-.1-.69-.17-1.38-.21-2.08,0-.07,0-.14-.01-.21-.04-.71-.05-1.41-.03-2.12h0c0-.09,0-.18.01-.27l-.14.09c-1.76,3-3.08,4.7-3.08,4.7-.4-.45-.81-1.07-1.21-1.82.08.98.12,1.92.12,2.8-1.91,1-6.22-2.79-6.22-2.79,0,0-5.54-4.23-10.72-12.54,10.13,4.67,27.54,4.25,35.28,3.79-1.57,3.39-3.01,5.32-3.01,5.32Z"/>
          <polygon class="cls-51" points="61.16 209.24 80.05 209.24 73.11 235.1 61.16 235.1 49.21 235.1 42.27 209.24 61.16 209.24"/>
          <rect class="cls-37" x="49.21" y="235.1" width="23.9" height="3.3"/>
          <polygon class="cls-29" points="65.12 238.4 65.12 235.1 69.38 209.24 80.05 209.24 73.11 235.1 73.11 238.4 65.12 238.4"/>
          <line class="cls-26" x1="73.11" y1="235.1" x2="49.21" y2="235.1"/>
        </g>
        <g>
          <polygon class="cls-39" points="337.03 396.83 203.54 396.83 70.04 396.83 38.75 432.37 203.54 432.37 368.32 432.37 337.03 396.83"/>
          <polygon class="cls-20" points="329.74 401.37 175.97 401.37 76.59 401.37 53.29 427.83 175.97 427.83 353.04 427.83 329.74 401.37"/>
        </g>
        <g>
          <g>
            <g>
              <polygon points="247.04 338.98 253 365.94 259.25 365.94 259.25 338.98 247.04 338.98"/>
              <polygon points="159.53 338.98 153.57 365.94 147.31 365.94 147.31 338.98 159.53 338.98"/>
              <g>
                <polygon points="293.92 338.98 291 377.93 284.23 377.93 276.38 338.98 293.92 338.98"/>
                <polygon points="112.93 338.98 115.85 377.93 122.62 377.93 130.47 338.98 112.93 338.98"/>
                <path class="cls-17" d="m303.1,226.56c-.44-2.98-3-5.18-6.01-5.18h-14.27l-79.4,83.89-79.4-83.89h-14.27c-3.01,0-5.57,2.2-6.01,5.18-2.4,16.39-8.89,68.36-1.22,108,1,5.19,5.61,8.91,10.9,8.91h180c5.29,0,9.9-3.72,10.9-8.91,7.67-39.64,1.18-91.61-1.22-108Z"/>
                <rect class="cls-52" x="118.78" y="278.36" width="168.53" height="43.4"/>
                <path class="cls-23" d="m118.78,278.36s15.73-10.53,84.64-10.53,83.89,10.53,83.89,10.53H118.78Z"/>
                <path class="cls-11" d="m282.69,182.03c-1.24-5.89-6.46-10.09-12.48-10.09h-133.57c-6.02,0-11.24,4.2-12.48,10.09-6.43,30.46-5.37,96.32-5.37,96.32h169.28s1.06-65.86-5.37-96.32Z"/>
                <path class="cls-43" d="m203.43,278.36h84.64s.18-11-.05-26.09c-74.84,20.35-148.07,5.19-169.17-.06-.23,15.12-.05,26.15-.05,26.15h84.64Z"/>
                <rect class="cls-33" x="118.78" y="315.76" width="168.53" height="5.99"/>
              </g>
            </g>
            <polygon class="cls-34" points="115.85 377.93 122.62 377.93 128.3 349.78 113.74 349.78 115.85 377.93"/>
            <polygon class="cls-34" points="291.05 377.93 284.28 377.93 278.6 349.78 293.16 349.78 291.05 377.93"/>
          </g>
          <path class="cls-25" d="m118.91,248.14s1.23-51.65,5.25-66.11c3.19-11.5,20.62-10.09,20.62-10.09h12.79"/>
          <line class="cls-24" x1="118.78" y1="321.75" x2="287.32" y2="321.75"/>
        </g>
        <g>
          <path class="cls-4" d="m259.13,284.86s8.46-3.45,15.44,3c7.34,6.78,21.07,21.84,0,21.36-31.61-.71-59.65-8.91-86.17-6.14-26.52,2.76-48.28,7.52-54.62,6.47-6.34-1.06,38.85-22.7,38.85-22.7l83.89,3.08,2.61-5.06Z"/>
          <path class="cls-33" d="m229.44,233.93l-26.46-2.66-26.46,2.66s-1.57,12.5-6.68,19.17l33.14,11.9,33.14-11.9c-5.11-6.67-6.68-19.17-6.68-19.17Z"/>
          <path class="cls-5" d="m201.94,264.63q1.04.37,1.05.38s0,0,1.04-.37c6.1-14.03,4.64-29.77,4.28-32.82l-5.32-.53-6.81.68c-.14,3.36-.36,18.74,5.76,32.67Z"/>
          <path class="cls-5" d="m175.97,237.87c3.37.52,15.55,15,55.14,4.03-1.21-4.37-1.66-7.96-1.66-7.96l-26.46-2.66-21.26,2.14-5.36,1.54-.4,2.91Z"/>
          <g>
            <path class="cls-31" d="m231.4,266.88l-90.13-27.35c-11.97-3.63-24.55,3.41-27.72,15.51l-.12.46c-3.26,12.47,4.82,25.06,17.52,27.28,33.32,5.82,93.72,15.73,125.51,16.94l13.4,8.93c2.02,1.35,4.71,1.13,6.48-.54l.07-.06c2.11-1.98,2.22-5.29.24-7.4l-2.09-2.23s-1.86-9.08-11.06-12.96c-9.2-3.89-10.06-13.4-12.23-18.58-2.16-5.19-15.99-7.78-19.88,0Z"/>
            <path class="cls-43" d="m113.55,255.05c3.16-12.1,15.75-19.14,27.72-15.51l30.56,9.27c-4.6,5.74-10.68,17.4-10.86,39.04-11.16-1.81-21.48-3.58-30.02-5.07-12.69-2.22-20.78-14.81-17.52-27.28l.12-.46Z"/>
            <path class="cls-33" d="m141.99,274.06c0,3.68-.88,7.14-2.44,10.21-3.02-.52-5.91-1.02-8.6-1.49-12.69-2.22-20.78-14.81-17.52-27.28l.12-.46c.28-1.09.65-2.13,1.08-3.13,1.52-.32,3.1-.5,4.72-.5,12.5,0,22.64,10.14,22.64,22.64Z"/>
            <path class="cls-19" d="m235.72,279.42s-1.3,7.55-13.83,4.86"/>
            <path class="cls-3" d="m243.69,275.96s-19.2-.86-59.83-8.11c-32.91-5.87-42.57-22.72-45.05-28.9.82.15,1.64.34,2.45.59l90.13,27.35c3.89-7.78,17.72-5.19,19.88,0,2.16,5.19,3.03,14.69,12.23,18.58,9.2,3.89,11.06,12.96,11.06,12.96,0,0-9.46-6.05-15.44-7.35-5.98-1.3-15.44-15.13-15.44-15.13Z"/>
          </g>
          <path class="cls-38" d="m247.85,299.24s16.55,15.84,30.66,9.32c2.35-1.08,3.08-4.08,1.55-6.16-11.89-16.14-26.87-33.73-32.58-40.34-1.43-1.65-3.69-2.32-5.79-1.71l-16.25,4.72,22.42,34.17Z"/>
          <polygon class="cls-27" points="225.43 265.07 209.86 260.35 221.65 296.64 247.85 299.24 225.43 265.07"/>
          <path class="cls-54" d="m176.95,266.88l90.13-27.35c11.97-3.63,24.55,3.41,27.72,15.51l.12.46c3.26,12.47-4.82,25.06-17.52,27.28-33.32,5.82-93.72,15.73-125.51,16.94l-13.4,8.93c-2.02,1.35-4.71,1.13-6.48-.54l-.07-.06c-2.11-1.98-2.22-5.29-.24-7.4l2.09-2.23s1.86-9.08,11.06-12.96c9.2-3.89,10.06-13.4,12.23-18.58,2.16-5.19,15.99-7.78,19.88,0Z"/>
          <path class="cls-43" d="m294.79,255.05c-3.16-12.1-15.75-19.14-27.72-15.51l-30.56,9.27c4.6,5.74,10.68,17.4,10.86,39.04,11.16-1.81,21.48-3.58,30.02-5.07,12.69-2.22,20.78-14.81,17.52-27.28l-.12-.46Z"/>
          <path class="cls-33" d="m266.36,274.06c0,3.68.88,7.14,2.44,10.21,3.02-.52,5.91-1.02,8.6-1.49,12.69-2.22,20.78-14.81,17.52-27.28l-.12-.46c-.28-1.09-.65-2.13-1.08-3.13-1.52-.32-3.1-.5-4.72-.5-12.5,0-22.64,10.14-22.64,22.64Z"/>
          <path class="cls-3" d="m164.66,275.96s19.2-.86,59.83-8.11c32.91-5.87,42.57-22.72,45.05-28.9-.82.15-1.64.34-2.45.59l-90.13,27.35c-3.89-7.78-17.72-5.19-19.88,0-2.16,5.19-3.03,14.69-12.23,18.58-9.2,3.89-11.06,12.96-11.06,12.96,0,0,9.46-6.05,15.44-7.35,5.98-1.3,15.44-15.13,15.44-15.13Z"/>
          <path class="cls-38" d="m160.5,299.24s-16.55,15.84-30.66,9.32c-2.35-1.08-3.08-4.08-1.55-6.16,11.89-16.14,26.87-33.73,32.58-40.34,1.43-1.65,3.69-2.32,5.79-1.71l16.25,4.72-22.42,34.17Z"/>
          <polygon class="cls-56" points="182.92 265.07 198.49 260.35 186.7 296.64 160.5 299.24 182.92 265.07"/>
          <path class="cls-3" d="m176.45,274.94c4.62-.49,10.62-1.21,18.04-2.26l4.01-12.33-15.57,4.72-6.47,9.87Z"/>
          <path class="cls-50" d="m165.46,288.22l-9.03,13.76c-.56.86-1.57,1.31-2.58,1.18h-.06c-1.96-.27-2.95-2.5-1.84-4.14l9.24-13.64c.59-.87,1.66-1.29,2.68-1.05h.05c1.72.42,2.51,2.4,1.54,3.88Z"/>
          <polygon class="cls-28" points="154.49 232.87 160.33 180.82 177.85 183.15 172.62 232.87 154.49 232.87"/>
          <polygon class="cls-55" points="251.59 232.87 245.75 180.82 228.23 183.15 233.46 232.87 251.59 232.87"/>
          <path class="cls-51" d="m249.55,191.78l-3.67-27.5c-1.39-10.4-7.93-19.4-17.4-23.92l-19.38-8.55-6.07,1.68v109.35c14.05,0,27.03-4.97,27.03-4.97l-3.34-46.09h22.82Z"/>
          <path class="cls-51" d="m177.55,140.36c-9.47,4.52-16.01,13.52-17.4,23.92l-3.67,27.5h22.82l-3.34,46.09s12.98,4.97,27.03,4.97v-109.35l-5.97-1.68-19.48,8.55Z"/>
          <polygon class="cls-9" points="206.09 144.36 210.75 150.24 209.11 140.01 206.09 144.36"/>
          <polygon class="cls-9" points="200.05 144.36 195.38 150.24 197.03 140.01 200.05 144.36"/>
          <line class="cls-22" x1="203.1" y1="148.67" x2="203.1" y2="242.84"/>
          <path class="cls-1" d="m228.48,140.36l-.25-.11v51.53h21.32l-3.67-27.5c-1.39-10.4-7.93-19.4-17.4-23.92Z"/>
          <path class="cls-1" d="m177.65,140.36l.25-.11v51.53h-21.32l3.67-27.5c1.39-10.4,7.93-19.4,17.4-23.92Z"/>
          <path class="cls-15" d="m233.45,153.08c3.35,5.76,7.37,5.58,10.55,3.95-2.84-7.24-8.34-13.24-15.52-16.67l-19.38-8.55-2.09.58-1.24,4.43s20.96,4.72,27.66,16.26Z"/>
          <path class="cls-15" d="m172.75,153.08c-3.35,5.76-7.37,5.58-10.55,3.95,2.84-7.24,8.34-13.24,15.51-16.67l19.38-8.55,2.09.58,1.24,4.43s-20.96,4.72-27.66,16.26Z"/>
          <g>
            <path class="cls-14" d="m199.29,162.04s-16.4-11.61-35.2-15.38c0,7.15,1.94,8.1,1.94,8.1l33.26,7.28Z"/>
            <path class="cls-53" d="m199.29,163.94v-1.9s-25.38-10.55-38.24-11.52l3.15,32.63,35.08-9.7v-9.51Z"/>
            <path class="cls-56" d="m207.01,162.04s-1.44,1.9-3.86,1.9-3.86-1.9-3.86-1.9v1.9s.54,6.6,3.42,6.6,4.31-6.6,4.31-6.6v-1.9Z"/>
            <path class="cls-14" d="m207.01,162.04s15.79-10.66,34.6-14.43c0,7.15-1.33,7.15-1.33,7.15l-33.26,7.28Z"/>
            <path class="cls-53" d="m207.01,163.94v-1.9s25.38-10.55,38.24-11.52l-3.15,32.63-35.08-9.7v-9.51Z"/>
            <path class="cls-33" d="m203.19,167.37h-.08c-1.98,0-3.61-1.51-3.8-3.44h-.02v50.1c0,2.11,1.71,3.82,3.82,3.82h.08c2.11,0,3.82-1.71,3.82-3.82v-50.1h-.02c-.19,1.93-1.82,3.44-3.8,3.44Z"/>
            <polygon class="cls-36" points="207.01 163.94 252.02 153.08 243.34 203.02 207.01 214.04 207.01 163.94"/>
            <polygon class="cls-43" points="199.29 163.94 154.28 153.08 162.96 203.02 199.29 214.04 199.29 163.94"/>
            <polygon class="cls-33" points="252.02 153.08 250.85 151.81 207.01 162.04 207.01 163.94 252.02 153.08"/>
            <polygon class="cls-33" points="154.28 153.08 155.45 151.81 199.29 162.04 199.29 163.94 154.28 153.08"/>
          </g>
          <polygon class="cls-47" points="227.82 180.82 226.69 188.17 218.96 181.54 214.15 211.87 223.02 209.18 233.56 192.28 227.82 180.82"/>
          <polygon class="cls-47" points="178.37 180.82 179.51 188.17 187.23 181.54 192.05 211.87 183.18 209.18 172.63 192.28 178.37 180.82"/>
          <path class="cls-12" d="m251.59,232.87l-10.27-34.15-1.03-5.75c-.51-2.86-1.68-5.55-3.41-7.88l-4.18-5.6c-.67-.9-1.83-1.29-2.91-.98h-.04c-1.39.42-2.21,1.85-1.86,3.25l2.08,8.3-5.89-9.63c-.82-1.33-2.58-1.71-3.87-.83l-.04.03c-.94.64-1.38,1.79-1.12,2.89l1.19,5.02-.78,4.18c-.55,2.93-.33,5.96.62,8.78l13.01,38.3c1.78,5.24,7.61,7.91,12.74,5.82l.18-.07c4.6-1.87,7.03-6.94,5.6-11.69Z"/>
          <line class="cls-18" x1="220.23" y1="187.54" x2="222.75" y2="196.02"/>
          <path class="cls-2" d="m245.91,235.47c-4.75,0-8.8,2.94-10.46,7.1,2.65,2.6,6.68,3.56,10.36,2.06l.18-.07c3.21-1.3,5.35-4.15,5.88-7.37-1.73-1.08-3.77-1.72-5.96-1.72Z"/>
          <path class="cls-12" d="m154.49,232.87l10.27-34.15,1.03-5.75c.51-2.86,1.68-5.55,3.41-7.88l4.18-5.6c.67-.9,1.83-1.29,2.91-.98h.04c1.39.42,2.21,1.85,1.86,3.25l-2.08,8.3,5.89-9.63c.82-1.33,2.58-1.71,3.87-.83l.04.03c.94.64,1.38,1.79,1.12,2.89l-1.19,5.02.78,4.18c.55,2.93.33,5.96-.62,8.78l-13.01,38.3c-1.78,5.24-7.61,7.91-12.74,5.82l-.18-.07c-4.6-1.87-7.03-6.94-5.6-11.69Z"/>
          <line class="cls-18" x1="185.85" y1="187.54" x2="183.33" y2="196.02"/>
          <path class="cls-2" d="m160.16,235.47c4.75,0,8.8,2.94,10.46,7.1-2.65,2.6-6.68,3.56-10.36,2.06l-.18-.07c-3.21-1.3-5.35-4.15-5.88-7.37,1.73-1.08,3.77-1.72,5.96-1.72Z"/>
          <path class="cls-45" d="m212.94,85.82s-10.66-7.78-20.95-6.02c-10.29,1.76,1.22,6.65,1.22,6.65,0,0-9.95,2.01-8.53,13.8,1.42,11.79,7.82,17.81,7.82,17.81l21.2-1s10.16-12.55,5.65-24.59c4.01-3.14,4.27-5.77-1-3.01,2.51-4.14.34-6.65-1.77-1.25l-3.62-2.38Z"/>
          <path class="cls-49" d="m221.47,112.79c0,2.36-1.91,4.27-4.27,4.27s-4.27-1.91-4.27-4.27,1.91-4.27,4.27-4.27,4.27,1.91,4.27,4.27Z"/>
          <path class="cls-12" d="m221.47,112.79c0-1.93-1.28-3.55-3.03-4.08-.76.77-1.23,1.83-1.23,3,0,1.93,1.28,3.55,3.03,4.08.76-.77,1.23-1.83,1.23-3Z"/>
          <path class="cls-49" d="m184.67,112.79c0,2.36,1.91,4.27,4.27,4.27s4.27-1.91,4.27-4.27-1.91-4.27-4.27-4.27-4.27,1.91-4.27,4.27Z"/>
          <path class="cls-12" d="m184.67,112.79c0-1.93,1.28-3.55,3.03-4.08.76.77,1.23,1.83,1.23,3,0,1.93-1.28,3.55-3.03,4.08-.76-.77-1.23-1.83-1.23-3Z"/>
          <path class="cls-15" d="m212.94,85.82s-10.66-7.78-20.95-6.02c-10.29,1.76,1.22,6.65,1.22,6.65,0,0-9.32,1.88-8.63,12.7,12.25-.64,19.46-8.68,19.46-8.68,0,0-4.14,5.7,0,8.34,4.14,2.63,10.77-11.75,10.77-11.75-1.86-1.23-1.87-1.23-1.87-1.23Z"/>
          <polygon class="cls-12" points="203.07 128.38 197.03 127.1 197.03 140.01 203.07 148.71 209.11 140.01 209.11 127.1 203.07 128.38"/>
          <path class="cls-13" d="m203.07,128.38l-6.04-1.28v9.33c6.99-.51,12.08-7.37,12.08-7.37v-1.97l-6.04,1.28Z"/>
          <path class="cls-12" d="m198.72,108.51c-2.66.48,1.45-9.91,1.45-9.91,0,0-2.77,5.02-10.58,8.53.03,1.81.16,3.8.43,5.98,1.45,11.6,7.01,18.13,13.06,18.86,6.04-.73,11.6-7.25,13.06-18.86,1.45-11.6-1.21-18.13-1.21-18.13,0,0-4.59,11.85-16.2,13.54Z"/>
          <path class="cls-30" d="m210.18,115.2c0,.96-.48,1.73-1.07,1.73s-1.07-.78-1.07-1.73.48-1.73,1.07-1.73,1.07.78,1.07,1.73Z"/>
          <path class="cls-45" d="m207.42,111.71s1.59-1.03,3.41-.42c.47.16.98-.12,1.1-.61v-.02c.09-.38-.09-.77-.44-.95-.74-.38-2.15-.85-4.07-.26v2.26Z"/>
          <path class="cls-30" d="m195.96,115.2c0,.96.48,1.73,1.07,1.73s1.07-.78,1.07-1.73-.48-1.73-1.07-1.73-1.07.78-1.07,1.73Z"/>
          <path class="cls-15" d="m209.11,132.4c-1.78,1.65-6.09,6.68-6.01,16.27l6.01-8.65v-7.61Z"/>
          <path class="cls-45" d="m198.72,111.71s-1.59-1.03-3.41-.42c-.47.16-.98-.12-1.1-.61v-.02c-.09-.38.09-.77.44-.95.74-.38,2.15-.85,4.07-.26v2.26Z"/>
          <polyline class="cls-18" points="204.03 118.06 204.03 122.08 202.27 122.08"/>
          <path class="cls-18" d="m200.39,124.84s2.63,1,5.39,0"/>
          <path class="cls-15" d="m200.41,108.18c-3.36,2.27-12.29,10.28,2.66,23.78,6.04-.73,11.6-7.25,13.06-18.86,1.45-11.6-1.21-18.13-1.21-18.13,0,0-4.14,10.47-14.5,13.21Z"/>
          <path class="cls-15" d="m251.59,232.87l-10.27-34.15-1.03-5.75c-.33-1.87-.95-3.67-1.82-5.34-.84,3.03-3.16,9.01-8.95,12.45-6.48,3.85,10.75,33.11,17.48,44,3.94-2.16,5.92-6.81,4.59-11.21Z"/>
          <path class="cls-7" d="m154.49,232.87l10.27-34.15,1.03-5.75c.33-1.87.95-3.67,1.82-5.34.84,3.03,3.16,9.01,8.95,12.45,6.48,3.85-10.75,33.11-17.48,44-3.94-2.16-5.92-6.81-4.59-11.21Z"/>
        </g>
      </g>
    </g>
  </g>
</svg>