<?xml version="1.0" encoding="utf-8"?>
<!-- Generator: Adobe Illustrator 27.5.0, SVG Export Plug-In . SVG Version: 6.00 Build 0)  -->
<svg version="1.1" xmlns="http://www.w3.org/2000/svg" xmlns:xlink="http://www.w3.org/1999/xlink" x="0px" y="0px"
	 viewBox="0 0 500 500" style="enable-background:new 0 0 500 500;" xml:space="preserve">
<g id="BACKGROUND">
	<rect style="fill:#FFFAF5;" width="500" height="500"/>
</g>
<g id="OBJECTS">
	<g>
		<rect y="394.077" style="fill:#E2C4B5;" width="500" height="105.923"/>
		<rect y="379.695" style="fill:#F0E8DE;" width="500" height="14.382"/>
	</g>
	<g>
		<path style="fill:#CFCDE1;" d="M451.566,35.588h-334.61c-0.93,0-1.684,0.754-1.684,1.684l0,0c0,0.93,0.754,1.683,1.684,1.683
			h334.61c0.93,0,1.684-0.754,1.684-1.683l0,0C453.25,36.342,452.496,35.588,451.566,35.588z"/>
		<path style="fill:#CFCDE1;" d="M446.874,40.521L446.874,40.521c-0.709,0-1.284-0.575-1.284-1.284v-3.931
			c0-0.709,0.575-1.284,1.284-1.284l0,0c0.709,0,1.284,0.575,1.284,1.284v3.931C448.158,39.946,447.584,40.521,446.874,40.521z"/>
		<g>
			
				<rect x="128.082" y="61.449" transform="matrix(-1.836970e-16 1 -1 -1.836970e-16 492.7191 -75.0742)" style="fill:#CFCDE1;" width="311.63" height="294.746"/>
			<g>
				<rect x="143.341" y="59.067" style="fill:#FFFFFF;" width="281.112" height="299.511"/>
			</g>
			
				<rect x="61.022" y="205.696" transform="matrix(-1.836970e-16 1 -1 -1.836970e-16 425.6592 -8.0143)" style="fill:#CFCDE1;" width="311.63" height="6.253"/>
			
				<rect x="196.824" y="205.696" transform="matrix(-1.836970e-16 1 -1 -1.836970e-16 561.4613 -143.8164)" style="fill:#CFCDE1;" width="311.63" height="6.253"/>
		</g>
		<g>
			<g>
				<path style="fill:#ECC4B5;" d="M114.666,248.941h5.285c2.399,0,4.343-1.945,4.343-4.343v-17.69c0-2.399-1.945-4.343-4.343-4.343
					h-5.285c-2.399,0-4.343,1.945-4.343,4.343v17.69C110.322,246.996,112.267,248.941,114.666,248.941z"/>
				<g>
					<g>
						<g>
							<path style="fill:#F8E0D8;" d="M181.38,43.586h-50.014c-1.935,0-3.504,1.569-3.504,3.504v339.295
								c0,1.908,1.53,3.465,3.438,3.506c1.909,0.041,3.451-0.267,6.031,0.012c2.804,0.302,5.886-0.682,8.605-2.025
								c1.218-0.605,7.018-1.198,8.204-1.447c8.294-1.74,10.07-5.826,10.014-7.94c-1.566-59.409-15.483-126.488-18.595-134.303
								c-0.384-0.964-0.309-2.039,0.179-2.954c18.885-35.423,36.789-119.079,39.152-194.043
								C184.952,45.216,183.357,43.586,181.38,43.586z"/>
							<path style="fill:#F2D1C4;" d="M135.257,241.349c-1.519,9.187-2.791,28.516-1.283,52.188
								c2.088,32.78,5.341,78.766,4.636,85.362c0,0-6.057-66.064-7.941-89.138c-1.265-15.488,0.287-41.7,1.445-49.376
								C133.16,240.714,134.208,241.033,135.257,241.349z"/>
							<path style="fill:#F2D1C4;" d="M144.044,387.878c1.863-0.795,3.911-0.141,5.458-1.02c-0.018-3.189-0.358-7.927-0.426-11.107
								c-0.483-22.321-5.131-64.411-10.485-82.536C141.482,317.699,145.282,362.59,144.044,387.878z"/>
							<path style="fill:#F2D1C4;" d="M143.467,245.746l-5.51-0.954c0,0,0.291-10.368,4.854-22.061
								c5.512-14.127,11.851-34.155,20.728-67.724c0,0-0.336,24.827-16.764,66.669C143.387,230.306,142.938,239.263,143.467,245.746
								z"/>
							<path style="fill:#F2D1C4;" d="M145.316,43.59c-2.52,63.47-11.03,149.32-17.45,169.16V235
								c10.81-34.5,18.33-131.81,18.88-191.41H145.316z"/>
							<path style="fill:#F2D1C4;" d="M144.444,243.83l-5.676-1.752c0,0-1.196,9.975,2.63,23.318
								c4.514,15.741,9.801,68.898,14.09,111.11c0,0,0.878-72.732-11.462-114.179C142.961,258.75,141.821,246.505,144.444,243.83z"
								/>
						</g>
					</g>
				</g>
				<g>
					<path style="fill:#ECC4B5;" d="M132.362,33.806h-0.053c-0.515,0-0.932,0.417-0.932,0.932v8.848h1.916v-8.848
						C133.294,34.223,132.877,33.806,132.362,33.806z"/>
					<path style="fill:#ECC4B5;" d="M140.411,33.806h-0.053c-0.515,0-0.932,0.417-0.932,0.932v8.848h1.916v-8.848
						C141.343,34.223,140.925,33.806,140.411,33.806z"/>
					<path style="fill:#ECC4B5;" d="M150.679,33.806h-0.053c-0.515,0-0.932,0.417-0.932,0.932v8.848h1.916v-8.848
						C151.611,34.223,151.194,33.806,150.679,33.806z"/>
					<path style="fill:#ECC4B5;" d="M160.947,33.806h-0.053c-0.515,0-0.932,0.417-0.932,0.932v8.848h1.916v-8.848
						C161.879,34.223,161.462,33.806,160.947,33.806z"/>
					<path style="fill:#ECC4B5;" d="M171.215,33.806h-0.053c-0.515,0-0.932,0.417-0.932,0.932v8.848h1.916v-8.848
						C172.147,34.223,171.73,33.806,171.215,33.806z"/>
					<path style="fill:#ECC4B5;" d="M181.483,33.806h-0.053c-0.515,0-0.932,0.417-0.932,0.932v8.848h1.916v-8.848
						C182.415,34.223,181.998,33.806,181.483,33.806z"/>
				</g>
				<path style="fill:#F2D1C4;" d="M166.237,43.586c0,0-0.378,43.758-8.323,89.079c-7.945,45.321-25.182,93.938-26.021,108.974
					l1.806,1.431c0,0,21.931-78.325,28.18-107.077c6.249-28.752,8.352-92.408,8.352-92.408H166.237z"/>
				<path style="fill:#ECC4B5;" d="M120.413,227.893c-0.074,13.002,23.049,14.132,26.855,14.246c0,0,2.431,1.279,2.051,3.607
					c-0.38,2.329-1.717,3.195-1.717,3.195s-8.754-1.508-19.621-6.621c-10.867-5.112-13.196-12.681-13.196-12.681L120.413,227.893z"
					/>
				<path style="fill:#F8E0D8;" d="M114.786,229.559c0,1.393,1.13,2.523,2.523,2.523c1.393,0,2.523-1.129,2.523-2.523
					c0-1.393-1.129-2.523-2.523-2.523C115.915,227.037,114.786,228.166,114.786,229.559z"/>
				<circle style="fill:#F8E0D8;" cx="117.308" cy="241.945" r="2.523"/>
			</g>
			<g>
				<path style="fill:#ECC4B5;" d="M455.998,248.941h-5.285c-2.399,0-4.343-1.945-4.343-4.343v-17.69
					c0-2.399,1.945-4.343,4.343-4.343h5.285c2.399,0,4.343,1.945,4.343,4.343v17.69
					C460.341,246.996,458.397,248.941,455.998,248.941z"/>
				<g>
					<g>
						<g>
							<path style="fill:#F8E0D8;" d="M389.284,43.586h50.014c1.935,0,3.504,1.569,3.504,3.504v339.295
								c0,1.908-1.53,3.465-3.438,3.506c-1.909,0.041-3.451-0.267-6.031,0.012c-2.804,0.302-5.886-0.682-8.605-2.025
								c-1.218-0.605-7.018-1.198-8.204-1.447c-8.294-1.74-10.07-5.826-10.014-7.94c1.566-59.409,15.483-126.488,18.595-134.303
								c0.384-0.964,0.309-2.039-0.179-2.954c-18.886-35.423-36.789-119.079-39.152-194.043
								C385.711,45.216,387.307,43.586,389.284,43.586z"/>
							<path style="fill:#F2D1C4;" d="M435.406,241.349c1.519,9.187,2.791,28.516,1.283,52.188
								c-2.088,32.78-5.341,78.766-4.636,85.362c0,0,6.057-66.064,7.941-89.138c1.265-15.488-0.287-41.7-1.445-49.376
								C437.504,240.714,436.455,241.033,435.406,241.349z"/>
							<path style="fill:#F2D1C4;" d="M426.62,387.878c-1.863-0.795-3.911-0.141-5.458-1.02c0.019-3.189,0.358-7.927,0.426-11.107
								c0.483-22.321,5.131-64.411,10.485-82.536C429.182,317.699,425.382,362.59,426.62,387.878z"/>
							<path style="fill:#F2D1C4;" d="M427.196,245.746l5.51-0.954c0,0-0.291-10.368-4.854-22.061
								c-5.513-14.127-11.851-34.155-20.728-67.724c0,0,0.336,24.827,16.764,66.669
								C427.277,230.306,427.726,239.263,427.196,245.746z"/>
							<path style="fill:#F2D1C4;" d="M423.918,43.59c0.55,59.6,8.07,156.91,18.88,191.41v-22.25
								c-6.42-19.84-14.93-105.69-17.45-169.16H423.918z"/>
							<path style="fill:#F2D1C4;" d="M426.22,243.83l5.676-1.752c0,0,1.196,9.975-2.63,23.318
								c-4.514,15.741-9.802,68.898-14.09,111.11c0,0-0.878-72.732,11.462-114.179C427.703,258.75,428.843,246.505,426.22,243.83z"
								/>
						</g>
					</g>
				</g>
				<g>
					<path style="fill:#ECC4B5;" d="M438.302,33.806h0.053c0.515,0,0.932,0.417,0.932,0.932v8.848h-1.916v-8.848
						C437.37,34.223,437.787,33.806,438.302,33.806z"/>
					<path style="fill:#ECC4B5;" d="M430.253,33.806h0.053c0.515,0,0.932,0.417,0.932,0.932v8.848h-1.916v-8.848
						C429.321,34.223,429.738,33.806,430.253,33.806z"/>
					<path style="fill:#ECC4B5;" d="M419.985,33.806h0.053c0.515,0,0.932,0.417,0.932,0.932v8.848h-1.916v-8.848
						C419.053,34.223,419.47,33.806,419.985,33.806z"/>
					<path style="fill:#ECC4B5;" d="M409.717,33.806h0.053c0.515,0,0.932,0.417,0.932,0.932v8.848h-1.916v-8.848
						C408.785,34.223,409.202,33.806,409.717,33.806z"/>
					<path style="fill:#ECC4B5;" d="M399.449,33.806h0.053c0.515,0,0.932,0.417,0.932,0.932v8.848h-1.916v-8.848
						C398.517,34.223,398.934,33.806,399.449,33.806z"/>
					<path style="fill:#ECC4B5;" d="M389.18,33.806h0.053c0.515,0,0.932,0.417,0.932,0.932v8.848h-1.916v-8.848
						C388.249,34.223,388.666,33.806,389.18,33.806z"/>
				</g>
				<path style="fill:#F2D1C4;" d="M404.427,43.586c0,0,0.378,43.758,8.323,89.079c7.945,45.321,25.182,93.938,26.021,108.974
					l-1.806,1.431c0,0-21.931-78.325-28.18-107.077c-6.25-28.752-8.352-92.408-8.352-92.408H404.427z"/>
				<path style="fill:#ECC4B5;" d="M450.251,227.893c0.074,13.002-23.049,14.132-26.855,14.246c0,0-2.431,1.279-2.051,3.607
					c0.38,2.329,1.717,3.195,1.717,3.195s8.754-1.508,19.621-6.621c10.867-5.112,13.196-12.681,13.196-12.681L450.251,227.893z"/>
				<path style="fill:#F8E0D8;" d="M455.878,229.559c0,1.393-1.129,2.523-2.523,2.523c-1.393,0-2.523-1.129-2.523-2.523
					c0-1.393,1.129-2.523,2.523-2.523C454.749,227.037,455.878,228.166,455.878,229.559z"/>
				<path style="fill:#F8E0D8;" d="M455.878,241.945c0,1.393-1.129,2.523-2.523,2.523c-1.393,0-2.523-1.13-2.523-2.523
					c0-1.393,1.129-2.523,2.523-2.523C454.749,239.423,455.878,240.552,455.878,241.945z"/>
			</g>
		</g>
		<path style="fill:#CFCDE1;" d="M452.966,40.638c0.506-1.502,1.396-2.421,2.018-2.911c0.3-0.236,0.3-0.674,0-0.911
			c-0.622-0.49-1.512-1.408-2.018-2.911c-0.16-0.477-0.439-0.819-0.778-1.062c-1.372-0.987-3.293,0.183-3.293,1.873v5.112
			c0,1.69,1.921,2.86,3.293,1.873C452.527,41.457,452.806,41.114,452.966,40.638z"/>
		<path style="fill:#CFCDE1;" d="M123.607,40.521L123.607,40.521c0.709,0,1.284-0.575,1.284-1.284v-3.931
			c0-0.709-0.575-1.284-1.284-1.284l0,0c-0.709,0-1.284,0.575-1.284,1.284v3.931C122.323,39.946,122.898,40.521,123.607,40.521z"/>
		<path style="fill:#CFCDE1;" d="M117.515,40.638c-0.506-1.502-1.396-2.421-2.018-2.911c-0.3-0.236-0.3-0.674,0-0.911
			c0.622-0.49,1.512-1.408,2.018-2.911c0.16-0.477,0.439-0.819,0.778-1.062c1.372-0.987,3.293,0.183,3.293,1.873v5.112
			c0,1.69-1.921,2.86-3.293,1.873C117.954,41.457,117.676,41.114,117.515,40.638z"/>
	</g>
	<g>
		<ellipse style="fill:#D3B3A3;" cx="75.773" cy="431.901" rx="38.845" ry="10.468"/>
		<ellipse style="fill:#AAAAAA;" cx="75.614" cy="306.618" rx="12.411" ry="1.561"/>
		<g>
			<path style="fill:#697F58;" d="M103.716,139.476c-2.919,3.736-7.255,10.57-10.041,16.348
				c-22.81,47.31-19.035,109.047-17.548,160.397c0.227,0.001,0.34,0.002,0.568-0.001c5.471-27.633,7.155-55.992,11.615-83.803
				c4.177-26.05,11.699-51.964,14.842-77.79C103.968,147.926,103.716,139.476,103.716,139.476z"/>
			<path style="fill:#8DA25C;" d="M99.149,195.374c2.7-4.726,11.497-14.133,11.497-14.133c-2.591,10.865-5.788,20.995-8.449,31.211
				c-8.646,33.196-14.239,68.664-24.589,101.915c-0.253-0.019-0.38-0.029-0.633-0.048C80.53,275.803,79.798,229.248,99.149,195.374z
				"/>
			<g>
				<path style="fill:#697F58;" d="M56.276,203.255c-2.419-6.369-9.37-15.166-13.735-18.484c1.572,9.402,5.128,22.43,7.558,31.902
					c8.653,33.733,13.97,66.785,23.2,100.693c0.371,0.002,0.557,0.003,0.928,0.005C71.506,279.015,69.936,239.216,56.276,203.255z"
					/>
				<path style="fill:#9DB466;" d="M46.702,133.529c2.924,3.843,6.952,7.669,11.517,19.07
					c19.662,49.107,18.329,108.942,16.352,161.295c-0.222-0.009-0.333-0.014-0.554-0.023c-4.465-29.114-6.613-58.496-11.697-87.542
					c-4.516-25.799-11.962-51.552-15.034-77.23C46.46,142.21,46.702,133.529,46.702,133.529z"/>
				<path style="fill:#ABC56F;" d="M75.968,118.934c1.077-3.362,2.33-6.486,3.248-11.029c1.871,10.371,3.8,21.014,4.323,31.453
					c2.916,58.242-2.459,120.322-7.653,178.873c-0.263,0.004-0.395,0.006-0.658,0.01c-2.726-32.101-3.219-64.489-4.684-96.663
					C69.033,188.356,65.698,150.995,75.968,118.934z"/>
			</g>
		</g>
		<path style="fill:#DEDEDE;" d="M98.365,371.231l-10.34-64.613c0,0.862-5.557,1.561-12.411,1.561s-12.411-0.699-12.411-1.561
			l-10.34,64.613c-3.482,19.061-3.655,39.512-0.631,58.604c0.304,1.917,1.637,3.518,3.469,4.16
			c2.963,1.039,8.726,2.098,19.913,2.098c11.123,0,16.959-1.216,19.966-2.32c1.812-0.666,3.14-2.242,3.441-4.149
			C102.021,410.567,101.832,390.212,98.365,371.231z"/>
	</g>
	<g>
		<path style="fill:#D3B3A3;" d="M459.959,435.796c0,14.838-127.536,33.582-204.866,37.697
			c-100.088,5.326-140.936-22.858-140.936-37.697c0-14.838,64.195-18.937,164.387-18.937
			C378.736,416.859,459.959,420.957,459.959,435.796z"/>
		<g>
			<polygon style="fill:#829E76;" points="421.008,390.749 318.018,362.91 146.223,393.479 242.786,422.932 			"/>
			<polygon style="fill:#CECFE2;" points="421.008,390.749 318.249,363.056 170.795,395.963 297.845,413.164 			"/>
			<g>
				<polygon style="fill:#6E8564;" points="146.454,393.626 146.635,399.051 149.764,400.648 148.561,439.169 146.939,438.471 
					147.043,443.398 241.732,473.946 245.491,464.816 243.017,423.079 				"/>
			</g>
			<polygon style="fill:#8FAD82;" points="421.008,390.749 420.728,440.531 241.732,473.798 242.786,422.935 392.434,395.868 			"/>
			<polygon style="fill:#84A078;" points="397.9,394.772 397.9,444.771 420.959,440.678 421.008,390.749 			"/>
			<polygon style="fill:#84A078;" points="273.994,417.067 242.786,422.932 241.732,473.945 273.994,467.779 			"/>
			<polygon style="fill:#EFF5F4;" points="148.33,438.967 238.353,465.998 239.055,426.873 149.533,400.501 			"/>
			<polygon style="fill:#CECFE2;" points="149.313,407.525 238.626,451.761 239.055,426.873 149.533,400.501 			"/>
		</g>
		<g>
			<polygon style="fill:#8663AF;" points="162.561,371.736 239.704,341.604 401.054,363.685 330.473,393.774 			"/>
			<polygon style="opacity:0.41;fill:#CECFE2;" points="162.561,371.736 239.704,341.604 391.529,363.1 295.637,395.129 			"/>
			<g>
				<path style="fill:#B298D4;" d="M401.054,363.685l-0.17,3.323l-2.939,1.5l1.13,12.393l1.523-0.656l-0.098,3.147l-68.896,31.116
					c0,0-9.729-2.491-10.298-9.75c-0.806-10.272,9.166-10.984,9.166-10.984L401.054,363.685z"/>
			</g>
			<path style="fill:#7B55A2;" d="M330.473,393.774c0,0-3.896,3.611-3.251,11.828c0.44,5.615,4.383,8.906,4.383,8.906
				L163.345,391.84c0,0-6.028-1.378-6.114-10.489c-0.089-9.405,5.33-9.615,5.33-9.615L330.473,393.774z"/>
			<path style="fill:#7B55A2;" d="M330.473,393.774c0,0-3.896,3.611-3.251,11.828c0.44,5.615,4.383,8.906,4.383,8.906
				L163.345,391.84c0,0-6.028-1.378-6.114-10.489c-0.089-9.405,5.33-9.615,5.33-9.615L330.473,393.774z"/>
			<path style="fill:#EFF5F4;" d="M399.076,380.901l-64.439,29.19c0,0-3.032,0-3.032-6.405c0-4.269,2.372-7.538,2.372-7.538
				l63.968-27.64L399.076,380.901z"/>
			<path style="fill:#CECFE2;" d="M332.557,398.883c0.66-1.685,1.421-2.735,1.421-2.735l63.968-27.64l0.292,3.208
				C398.239,371.717,354.833,390.692,332.557,398.883z"/>
		</g>
		<g>
			<polygon style="fill:#918978;" points="167.887,337.263 284.056,314.938 399.287,332.75 286.023,355.744 			"/>
			<polygon style="fill:#C3BDAC;" points="212.482,338.611 284.076,324.641 333.805,326.556 262.93,340.944 			"/>
			<g>
				<path style="fill:#C3BDAC;" d="M399.287,332.75l-0.166,3.243l-2.868,1.464l1.102,21.451l-0.045-0.885l1.38,0.762l0.056,2.553
					l-111.62,23.997c0,0-2.817-1.285-3.373-8.368c-0.787-10.024,2.268-21.223,2.268-21.223L399.287,332.75z"/>
			</g>
			<polygon style="fill:#827A68;" points="286.023,355.744 287.128,385.335 168.088,366.951 167.887,337.263 			"/>
			<polygon style="fill:#CECFE2;" points="175.902,335.723 284.056,314.938 388.381,330.051 254.929,348.061 			"/>
			<polygon style="fill:#EFF5F4;" points="397.356,358.908 290.087,381.025 289.443,358.062 396.254,337.457 			"/>
			<polygon style="fill:#CECFE2;" points="396.667,339.152 289.443,366.605 289.443,358.062 396.254,337.457 			"/>
		</g>
		<g>
			<polygon style="fill:#E2928F;" points="392.329,298.061 313.348,282.899 153.893,310.939 226.999,325.644 			"/>
			<path style="fill:#E3C9BB;" d="M332.679,290.866c-5.377-3.459-20.375-5.52-36.777-4.899c-2.039,0.077-3.986,0.149-5.87,0.217
				c-6.963,1.745-13.933,3.462-20.922,5.104c-12.892,3.029-25.831,5.768-38.899,7.927c-7.792,1.287-15.59,2.534-23.308,4.157
				c2.247,6.088,28.78,10.066,48.968,9.415c30.389-0.979,35.644-2.298,62.319-9.129C331.605,300.223,339.24,295.086,332.679,290.866
				z"/>
			<g>
				<path style="fill:#D58782;" d="M153.893,310.939l0.431,3.318l3.063,1.508l-0.158,19.212l-1.578-0.661l0.346,3.141l71.498,15.724
					c0,0,6.492-1.991,5.848-12.09c-0.77-12.077-6.344-15.447-6.344-15.447L153.893,310.939z"/>
			</g>
			<path style="fill:#C56C68;" d="M226.999,325.644c0,0,4.025,4.156,4.025,14.058c0,10.403-3.529,13.479-3.529,13.479
				l166.335-28.599c0,0,4.945-5.152,4.315-14.246c-0.65-9.387-5.816-12.274-5.816-12.274L226.999,325.644z"/>
			<path style="fill:#FBFBFB;" d="M157.229,334.977l66.879,13.785c0,0,2.164-3.053,2.164-9.775c0-8.29-2.599-10.986-2.599-10.986
				l-66.286-12.235L157.229,334.977z"/>
			<path style="fill:#CECFE2;" d="M157.373,317.508l0.014-1.743L223.673,328c0,0,1.963,2.035,2.477,8.008
				C226.15,336.009,172.692,325.822,157.373,317.508z"/>
		</g>
	</g>
	<g>
		<path style="fill:#D4877B;" d="M267.147,153.426c-6.846,1.923-14.072,4.016-16.648,12.549c-2.576,8.534-4.571,16.677-8.514,26.567
			c-1.634,4.1-5.409,13.371-5.409,24.221c0,8.196,5.133,10.657,11.214,7.655c3.484-1.72,9.797-6.735,11.88-11.448
			c5.721-12.94,4.042-14.849,9.228-30.383C277.461,156.934,267.147,153.426,267.147,153.426z"/>
		<path style="fill:#393A42;" d="M259.371,155.98c-1.338,0.356-6.151-0.608-9.261,0.814c-3.111,1.421-7.356,8.274-9.162,16.186
			c-1.806,7.912-1.764,22.047-1.764,22.047s3.079,3.688,13.015,4.194c9.936,0.507,12.848-2.389,12.848-2.389L259.371,155.98z"/>
		<g>
			<path style="fill:#FFFFFF;" d="M252.367,395.118c1.081,2.053,2.72,4.729,3.034,8.186c0.314,3.457-0.048,12.4,0.109,16.801
				c0.157,4.4-1.353,14.663-4.496,19.849c-3.143,5.186-8.51,7.21-12.596,6.895c-4.086-0.314-6.731-5.572-6.731-14.844
				c0-9.272,5.751-11.429,8.894-18.972c3.143-7.543,7.229-21.844,7.229-21.844S250.796,392.133,252.367,395.118z"/>
			<g>
				<polygon style="fill:#EBA398;" points="207.298,363.635 222.046,396.804 235.895,387.455 222.8,348.781 				"/>
				<path style="fill:#4E514E;" d="M295.909,256.977c0,0-30.407,2.867-46.923,5.712c-19.704,3.395-50.67,12.368-58.058,14.743
					c-9.124,2.933-12.228,15.643-7.332,28.372c3.188,8.288,5.22,13.597,9.882,26.14C203.097,357.823,215,383.966,215,383.966
					s5.527-1.703,9.992-3.883c5.428-2.651,7.47-5.549,7.47-5.549s-8.272-36.265-10.004-43.27
					c-3.891-15.74-7.074-27.059-7.074-27.059s66.4-8.955,71.149-9.972S295.909,256.977,295.909,256.977z"/>
				<path style="fill:#1D2438;" d="M220.649,420.934c-1.234,1.015-4.953,10.508-1.795,12.492
					c3.158,1.984,10.176-3.223,15.215-12.251c5.039-9.028,10.451-22.403,12.84-26.072c2.389-3.669,5.266-11.447-0.398-11.857
					c-5.664-0.41-13.867,12.901-18.616,21.553C223.146,413.453,220.649,420.934,220.649,420.934z"/>
				<path style="fill:#3E4450;" d="M220.912,394.097c3.771-0.696,7.121-0.983,9.021-4.383c1.9-3.4,1.868-7.538,2.065-9.409
					c0.196-1.871,3.838-1.052,6.379-0.293c2.541,0.759,6.133,2.047,8.135,3.234c0,0-5.622,3.629-8.983,14.849
					s-11.698,22.402-15.03,27.519c-3.332,5.117-4.819,5.691-3.644,7.812c0,0-0.581,0.738-2.829-3.758
					c-2.525-5.05,3.225-13.334,3.71-19.623c0.485-6.289-0.032-8.856-0.26-11.122C219.246,396.656,219.734,394.315,220.912,394.097z"
					/>
				<path style="fill:#FFFFFF;" d="M242.538,381.428c-4.041,2.385-6.121,7.137-7.777,12.252c-1.896,5.853-4.933,13.456-15.302,27.1
					c-1.933,2.544-2.854,5.283-3.652,8.113c0.511,4.296,3.047,4.533,3.047,4.533c-1.175-2.12,0.312-2.695,3.644-7.812
					c3.332-5.117,11.669-16.299,15.03-27.519s8.983-14.849,8.983-14.849C245.486,382.638,244.043,382.005,242.538,381.428z"/>
			</g>
			<g>
				<g>
					<path style="fill:#3E4450;" d="M250.003,390.386c-0.706,4.04,0.353,6.005-1.589,7.861c-1.941,1.856-7.942,2.511-11.119,1.201
						c-3.177-1.31-0.963-2.222-0.963-3.969c0-1.747-0.449-6.075-0.449-6.075s-3.364,5.597-3.188,13.348
						c0.176,7.752-0.478,13.826-1.008,22.67c-0.529,8.843-1.159,16.853,5.429,17.2c4.632,0.244,9.594-2.715,13.051-11.515
						c3.591-9.14,3.294-19.842,3.143-24.673c-0.157-5.029,0.293-8.039-0.943-11.315
						C251.132,391.843,250.003,390.386,250.003,390.386z"/>
					<path style="fill:#EBA398;" d="M237.032,364.808c0,0-0.429,11.236-1.263,20.943c-0.473,5.508-0.747,9.186-1.223,12.945
						c-0.87,6.871,0.896,10.315,3.782,10.322c4.663,0.012,11.219-4.797,11.265-10.775c0.023-2.98,0.559-7.484,1.395-12.72
						c1.658-10.386,4.094-20.75,4.094-20.75L237.032,364.808z"/>
					<path style="fill:#4E514E;" d="M289.068,260.496c0,0-33.55,21.934-41.501,27.104c-9.5,6.178-9.975,14.595-11.342,24.48
						c-1.162,8.401-1.751,73.904-1.751,73.904c-0.681-0.012,3.369,1.088,11.387,2.118c2.613,0.336,7.845-0.096,7.845-0.096
						s5.23-12.588,8.359-28.361c2.789-14.054,8.487-43.008,8.487-43.008s24.711-9.254,39.074-14.905
						c13.639-5.367,18.285-10.523,19.338-17.1c1.94-12.128-4.343-25.516-4.343-25.516L289.068,260.496z"/>
					<path style="fill:none;stroke:#444644;stroke-width:1.5885;stroke-miterlimit:10;" d="M272.663,271.218
						c0,0-20.441,13.27-25.096,16.382c-5.753,3.846-9.843,11.309-10.949,19.717c-1.107,8.409-2.144,78.666-2.144,78.666"/>
				</g>
				<path style="fill:none;stroke:#444644;stroke-width:1.5885;stroke-miterlimit:10;" d="M265.046,342.69
					c0,0,4.513-17.909,5.506-30.61"/>
			</g>
			<path style="fill:none;stroke:#444644;stroke-width:1.5885;stroke-miterlimit:10;" d="M198,306.685
				c0,0,32.039-3.493,39.955-5.355"/>
		</g>
		<path style="fill:#EBA398;" d="M304.14,137.519c-0.956-2.021-1.555-7.536-1.84-13.026c-6.406,0.802-12.837,1.433-19.276,2.021
			c0.057,6.104-0.104,13.374-1.12,15.177c-0.672,1.192-11.116,4.531-11.116,4.531s2.876,11.211,18.57,11.211
			c26.136,0,29.172-12.968,29.172-12.968S304.986,139.306,304.14,137.519z"/>
		<path style="fill:#D4877B;" d="M284.678,141.849c5.453-0.505,11.131-1.967,16.14-4.202c1.008-0.45,1.941-0.98,2.838-1.553
			c-0.678-2.597-1.122-7.106-1.356-11.602c-6.406,0.802-12.837,1.433-19.276,2.021c0.057,6.104-0.104,13.374-1.12,15.177
			c-0.055,0.097-0.18,0.21-0.354,0.333C282.591,141.996,283.633,141.946,284.678,141.849z"/>
		<path style="fill:#393A42;" d="M330.662,218.185c2.258-32.67,1.379-67.332,0.504-68.191c-1.615-1.585-14.554-6.625-21.687-9.301
			c0,7.04-10.873,11.264-20.121,11.064c-5.764-0.125-14.792-0.375-11.597-7.98c-11.176,2.963-18.49,7.348-18.49,7.348
			s-7.004,10.359-5.703,12.868c1.301,2.521,2.99,37.033,1.519,53.692c-0.695,7.875,0.157,32.646-1.519,44.266
			c11.815-1.622,20.655,3.094,23.645,3.452c3.405,0.408,13.853,0.299,23.757-0.565c13.245-1.156,27.366,9.931,27.959,9.297
			c0.963-1.03,0.023-6.313-0.108-15.951C328.635,244.412,330.294,223.514,330.662,218.185z"/>
		<path style="fill:none;stroke:#52545F;stroke-width:0.9899;stroke-miterlimit:10;" d="M256.969,171.482
			c0,0-0.823,31.082-1.482,43.945"/>
		<path style="fill:#EBA398;" d="M272.723,179.643c0,0,3.022-0.501,2.452-1.922c-0.57-1.421-0.843-3.874-1.74-5.417
			c-0.898-1.543-5.806-2.646-5.806-2.646L272.723,179.643z"/>
		<g>
			<path style="fill:#EBA398;" d="M242.418,225.649c-4.136,0.864-6.61-3.312-7.746-8.284c-0.981-4.294,0.081-9.168,1.055-15.41
				c1.796-11.516,7.54-31.439,7.54-31.439l9.347-0.069c0,0-1.55,22.543-1.383,33.504
				C251.44,217.607,247.153,224.661,242.418,225.649z"/>
		</g>
		<g>
			<g>
				<path style="fill:#BCC0E3;" d="M284.986,205.45l-12.237,0.373l-27.812-56.831l9.897-0.302c0.681-0.021,1.302,0.39,1.549,1.025
					l30.053,53.543C286.839,204.294,286.096,205.417,284.986,205.45z"/>
				<path style="fill:#E3E4F3;" d="M284.784,205.397l-38.468,1.232c-0.831,0.026-1.578-0.502-1.831-1.294l-26.723-53.453
					c-0.331-1.02,0.41-2.073,1.482-2.105l33.668-1.027c0.536-0.016,1.02,0.317,1.196,0.823L284.784,205.397z"/>
			</g>
		</g>
		<path style="fill:#EBA398;" d="M333.148,156.332c-9.282-2.604-11.978,10.833-12.293,24.096
			c-0.287,12.085-4.341,29.893-4.341,29.893s-2.346-1.423-7.967-5.346c-6.541-4.565-18.058-11.543-23.879-15.076
			c-1.036-0.629-1.961-1.166-2.636-1.678c-3.117-2.362-5.22-6.484-8.168-13.551c-0.141-0.337-2.162-3.049-4.002-3.839
			c-4.262-1.829-5.39-4.553-7.855-6.435c-2.647-2.021-6.248-4.493-6.946-3.321c-0.697,1.173,0.671,1.962,1.869,3.227
			c0.369,0.39,2.414,2.045,3.072,2.764c1.475,1.613,2.599,3.191,3.31,4.049c1.029,1.241,1.271,1.577,0.822,1.747
			c-1.15,0.435-2.551-1.294-4.554-2.279c-1.117-0.549-1.707-1.11-4.988-2.43c-2.339-0.941-5.483-1.975-6.142-2.136
			c-1.264-0.31-2.174,0.99-0.227,2.325c1.253,0.859,6.025,3.179,7.393,4.113c0.897,0.612,2.688,1.54,3.692,2.608
			c1.226,1.304,2.26,2.15,2.26,2.15s-1.911-0.982-4.57-2.234c-1.182-0.557-3.39-1.111-5.495-1.782
			c-1.338-0.427-3.543-0.993-3.822,0.173c-0.278,1.162,4.518,2.898,5.298,3.237c0.883,0.384,2.33,1.001,3.745,1.773
			c2.518,1.374,3.822,2.527,3.78,2.768c-0.015,0.085-2.46-0.656-4.076-1.053c-0.983-0.242-2.208-0.448-3.662-0.464
			c-1.306-0.015-1.156,0.771-0.865,1.179c0.42,0.588,3.066,1.535,4.203,1.927c1.063,0.367,2.946,1.332,3.999,2.074
			c1.537,1.083,3.741,2.69,4.945,4.77c1.855,3.204,5.189,5.246,8.478,6.231c2.96,0.886,22.232,20.915,23.366,21.992
			c3.658,3.472,12.339,11.346,15.99,13.939c7.051,5.007,10.735,8.311,14.829,3.543c6.214-7.237,14.036-42.756,14.064-59.367
			C341.794,164.817,337.614,157.585,333.148,156.332z"/>
		<g>
			<path style="fill:#EBA398;" d="M270.722,96.233c-2.679,6.135-2.563,12.997-1.47,16.771c1.093,3.775,1.257,3.16,1.765,8.167
				c0.663,6.532,6.478,13.296,9.67,15.738c5.798,4.436,16.864-1.515,19.562-8.382c1.637-4.167,4.381-12.222,4.65-15.627
				c0.269-3.405,1.165-14.812-3.726-18.987c-4.891-4.175-12.647-3.456-20.38-1.244C273.059,94.883,271.854,93.642,270.722,96.233z"
				/>
			<path style="fill:#3B2928;" d="M301.245,104.774c0,0-3.595-1.613-5.025-6.106c-1.43-4.493-2.323-6.747-2.323-6.747
				s-2.176,4.006-15.94,4.84c-7.296,0.442-8.701,0.341-8.701,0.341s-8.387-5.155-2.876-12.663c3.831-5.22,9.953-2.706,13.36-2.39
				c6.761,0.626,9.195,0.425,11.982-0.162c8.282-1.744,8.506,3.8,8.506,3.8s4.385,0.176,7.111,4.522
				c2.829,4.509,2.367,8.486,1.371,14.347c-1.348,7.935-6.708,12.676-6.708,12.676L301.245,104.774z"/>
			<path style="fill:#3B2928;" d="M271.548,126.639c-0.2-1.168-0.166-3.337-0.166-3.337c1.314,3.675,2.051,3.425,2.209,3.181
				c1.674-2.591,5.133-4.039,9.133-4.151c6.085-0.17,10.644,2.613,12.491,2.215c1.081-0.233,2.123,0.079,3.324-1.959
				c0.828-1.404,1.534-2.056,1.577-4.362c0.104-5.559,0.078-14.703,0.078-14.703l7.144,2.167c-2.129,8.395-3.074,11.059-3.19,14.023
				c-0.303,7.769-1.537,12.571-9.102,17.21c-5.862,3.595-12.676,3.755-17.34,1.089C272.571,135.078,272.125,130.002,271.548,126.639
				z"/>
			<g>
				<path style="fill:#302426;" d="M283.641,104.006c0,0-0.215-1.371,0.621-2.383c0,0,5.077-1.358,10.307,1.979
					c0,0-0.911,0.17-1.28,0.174C292.35,103.787,286.864,102.651,283.641,104.006z"/>
				<path style="fill:#302426;" d="M277.214,104.486c0,0,0.025-1.212-0.87-2.105c0,0-2.931-0.528-7.156,3.01
					c0,0,0.332,0.604,1.207,0.257C271.27,105.303,274.617,103.301,277.214,104.486z"/>
				<path style="fill:#302426;" d="M288.285,110.18c0.147,1.139-0.279,2.133-0.951,2.22c-0.672,0.086-1.335-0.767-1.481-1.907
					c-0.147-1.14,0.279-2.133,0.951-2.22C287.475,108.186,288.138,109.04,288.285,110.18z"/>
				<path style="fill:#302426;" d="M275.782,111.787c0.146,1.14-0.279,2.133-0.951,2.22c-0.672,0.086-1.335-0.767-1.481-1.907
					c-0.146-1.14,0.279-2.133,0.951-2.22C274.972,109.794,275.636,110.647,275.782,111.787z"/>
			</g>
			<g>
				<g>
					<path style="fill:#EBA398;" d="M302.164,109.331c2.333-3.012,6.731-2.899,6.732,1.104c0.001,3.336-1.624,4.143-4.009,7.125
						c-1.618,2.023-3.347,1.288-3.546,0.378C300.779,115.363,300.715,111.201,302.164,109.331z"/>
				</g>
			</g>
			<path style="fill:#D4877B;" d="M281.291,110.552c-0.704,0.998-1.34,2.035-1.965,3.079c-0.633,1.039-1.215,2.105-1.797,3.171
				l-0.423,0.806l-0.211,0.403c-0.064,0.169-0.128,0.341-0.182,0.513c-0.015,0.186-0.04,0.379-0.018,0.561
				c0.051,0.176,0.068,0.376,0.174,0.516c0.162,0.319,0.415,0.543,0.676,0.71c1.054,0.664,1.625,0.815,2.8,0.851
				c0,0,0.732-0.193,0.213-0.421c-0.523-0.207-2.258-0.556-2.655-0.897c-0.393-0.346-0.639-0.759-0.509-1.199
				c0.051-0.111,0.091-0.222,0.132-0.336l0.218-0.398l0.436-0.796c0.563-1.07,1.127-2.139,1.639-3.235
				C280.34,112.787,280.85,111.689,281.291,110.552z"/>
			<path style="fill:#D4877B;" d="M304.494,109.07c1.21-1.103,2.378-0.185,2.778,0.998c0.4,1.184-0.075,0.533-1.04-0.096
				c-0.965-0.629-1.919,1.284-1.794,2.455c0.173,1.616-0.373,3.687-1.781,3.894c-1.408,0.207-0.683-0.333-0.517-2.071
				c0.165-1.739-0.08-0.007,0.325-1.724C302.869,110.809,303.453,110.018,304.494,109.07z"/>
		</g>
		<path style="fill:#F7EDE6;" d="M278.005,126.626c1.57,0.524,5.553,0.395,6.754-0.743c0,0-1.318,4.014-3.941,3.201
			C278.196,128.27,278.005,126.626,278.005,126.626z"/>
		<path style="fill:#393A42;" d="M328.596,148.419c-5.566-0.762-8.027,8.506-10.066,21.862c-2.039,13.356-0.757,23.245-0.757,23.245
			s5.217,5.404,13.373,5.505c8.156,0.102,9.482-1.325,9.482-1.325s3.976-18.73,1.529-30.928
			C339.71,154.581,331.504,148.817,328.596,148.419z"/>
		<path style="fill:#2D303D;" d="M295.238,106.871c-0.112-0.787-2.983-0.934-5.029-0.839c-2.046,0.095-7.503,0.348-8.687,1.019
			c-1.184,0.671-0.74,1.179-2.461,1.259c-1.031,0.048-0.827-0.49-2.068-1.049c-1.241-0.559-2.855-0.484-4.901-0.389
			c-2.046,0.095-4.568,0.477-4.607,1.271c-0.039,0.795,0.178,2.193,0.569,2.439c0.391,0.246,0.677,2.848,1.236,3.973
			c0.864,1.74,2.491,2.267,4.565,1.948c3.541-0.544,3.474-3.623,3.868-4.962c0.394-1.339,1.017-1.542,1.529-1.568
			c0.523-0.026,1.424,0.11,1.94,1.407c0.516,1.297,0.689,4.226,4.086,4.597c4.448,0.486,6.515-0.705,7.38-3.116
			c1.172-3.269,0.982-3.291,1.348-3.572c0.169-0.13,1.171-0.439,1.229-0.879C295.302,107.9,295.299,107.295,295.238,106.871z
			 M276.525,112.743c-0.271,1.688-0.955,3.224-3.183,3.161c-2.172-0.061-2.93-0.554-3.608-2.965
			c-0.496-1.767-0.88-3.568-0.477-4.085c0.402-0.517,2.609-0.617,5.167-0.599c2.559,0.017,1.876,0.094,2.193,1.076
			C276.734,109.691,276.796,111.055,276.525,112.743z M292.221,111.751c-0.665,2.382-1.814,3.476-4.649,3.593
			c-4.02,0.166-4.651-1.222-5.077-2.878c-0.426-1.656-0.49-3.02-0.407-3.389c0.225-1.007,1.074-1.091,3.62-1.345
			c2.546-0.254,5.943-0.547,6.392-0.07C292.548,108.139,292.8,109.678,292.221,111.751z"/>
		<path style="fill:#2D303D;" d="M294.837,108.866c0.58-0.044,6.968,0.798,6.968,0.798s0.973-1.183,1.698-1.594
			c0,0-7.677-1.72-9.176-1.789L294.837,108.866z"/>
		<path style="fill:none;stroke:#52545F;stroke-width:0.9899;stroke-miterlimit:10;" d="M320.625,165.362
			c-1.14,3.37-3.314,24.747-1.443,29.382"/>
		<path style="fill:none;stroke:#D4877B;stroke-miterlimit:10;" d="M322.193,215.612c0,0-5.502-6.593-11.134-8.983"/>
	</g>
</g>
<g id="TEXTS">
	
		<text transform="matrix(1.0633 -0.1934 0 1 263.0397 455.4643)" style="fill:#ABCF9C; font-family:'BebasNeue'; font-size:31.8136px;">GLOSSARY</text>
</g>
</svg>
